<?xml version="1.0" standalone="no"?>
<!DOCTYPE svg PUBLIC "-//W3C//DTD SVG 20010904//EN"
 "http://www.w3.org/TR/2001/REC-SVG-20010904/DTD/svg10.dtd">
<svg version="1.0" xmlns="http://www.w3.org/2000/svg"
 width="433.000000pt" height="470.000000pt" viewBox="0 0 433.000000 470.000000"
 preserveAspectRatio="xMidYMid meet">

<g transform="translate(0.000000,470.000000) scale(0.100000,-0.100000)"
fill="#000000" stroke="none">
<path d="M1832 4519 c-123 -21 -244 -83 -366 -186 -72 -62 -74 -62 -236 -157
-175 -102 -364 -299 -468 -488 -91 -164 -169 -429 -179 -601 -15 -249 73 -515
262 -797 42 -63 104 -162 137 -220 138 -239 261 -349 448 -399 41 -11 107 -23
145 -27 39 -3 106 -15 150 -25 151 -34 304 -52 415 -46 131 6 295 53 455 132
61 29 128 57 150 61 159 27 392 207 521 400 80 120 124 235 187 489 8 33 29
97 46 142 55 150 58 298 6 441 -14 38 -36 112 -49 163 -60 235 -158 414 -341
619 -135 151 -251 233 -375 265 -36 10 -114 42 -175 71 -97 47 -159 68 -335
113 -25 6 -76 20 -115 30 -87 23 -213 32 -283 20z m232 -38 c12 -5 -14 -10
-70 -14 -105 -7 -251 -43 -372 -93 -48 -19 -94 -38 -102 -41 -30 -11 86 69
140 96 67 35 117 51 184 61 54 9 186 3 220 -9z m284 -95 c62 -27 116 -54 119
-59 7 -12 -121 -4 -387 24 -102 10 -230 19 -285 20 l-100 1 45 15 c120 39 214
52 355 50 l140 -2 113 -49z m167 -36 c33 -15 53 -28 45 -29 -8 0 -40 13 -70
29 -71 37 -53 38 25 0z m-440 -30 c99 -11 245 -23 325 -26 l145 -6 95 -54 c87
-49 101 -61 165 -146 39 -51 136 -160 216 -244 183 -190 265 -286 338 -395 62
-91 69 -119 86 -309 11 -118 -20 -355 -65 -510 -22 -73 -94 -189 -226 -365
-76 -102 -98 -124 -183 -182 -183 -127 -266 -187 -338 -246 l-71 -58 -98 -10
c-53 -5 -172 -22 -263 -39 -192 -35 -389 -60 -478 -60 -113 0 -329 94 -480
207 -115 87 -148 134 -320 458 -151 284 -209 481 -220 737 -6 162 3 247 44
388 l24 85 133 135 c73 74 178 191 233 260 165 206 238 278 334 329 46 25 106
50 134 57 75 18 269 16 470 -6z m781 -111 c110 -62 281 -239 391 -404 42 -64
66 -106 36 -65 -128 176 -263 299 -463 423 -42 26 -86 60 -98 76 l-22 30 53
-16 c28 -8 75 -28 103 -44z m-1617 -98 c-65 -88 -242 -295 -323 -376 l-99
-100 33 60 c67 124 205 282 345 394 56 45 63 49 44 22z m1654 -30 c113 -77
223 -175 293 -264 63 -80 134 -191 153 -239 5 -12 17 -41 25 -63 l17 -40 -23
30 c-82 107 -155 190 -294 335 -144 149 -265 290 -249 290 3 0 38 -22 78 -49z
m-1793 -35 c0 -2 -8 -10 -17 -17 -16 -13 -17 -12 -4 4 13 16 21 21 21 13z
m-113 -116 c-86 -91 -150 -184 -207 -302 -41 -84 -71 -128 -51 -76 30 81 114
223 178 303 30 36 145 155 151 155 2 0 -30 -36 -71 -80z m-295 -555 c-12 -50
-16 -121 -17 -250 0 -191 11 -268 60 -424 13 -41 23 -76 21 -78 -5 -6 -85 145
-109 207 -14 36 -28 94 -32 130 -8 73 7 224 30 315 16 64 56 178 60 173 2 -2
-4 -34 -13 -73z m2815 -380 c-2 -60 -9 -121 -16 -135 -9 -20 -10 -8 -6 60 15
233 32 291 22 75z m-2739 -448 c27 -38 63 -122 97 -222 13 -38 -67 91 -116
187 -42 84 -89 193 -89 208 0 3 17 -25 38 -61 22 -36 53 -86 70 -112z m2617
-44 c-77 -273 -215 -465 -448 -622 -48 -32 -149 -81 -168 -81 -6 0 27 31 73
69 46 38 117 108 158 157 89 104 88 103 175 178 97 85 144 154 184 269 36 106
53 125 26 30z m-89 -111 c-14 -27 -46 -71 -71 -98 l-47 -49 32 45 c18 25 48
69 67 98 20 28 38 52 40 52 2 0 -8 -22 -21 -48z m-2322 -216 c16 -27 23 -46
17 -42 -11 7 -51 79 -51 92 0 10 2 7 34 -50z m1984 -156 c-38 -48 -160 -155
-234 -206 -37 -26 -60 -35 -82 -32 -30 3 -30 3 40 58 62 49 298 218 306 220 2
0 -12 -18 -30 -40z m-1788 -130 c52 -53 91 -79 195 -134 104 -54 122 -66 90
-61 -78 12 -201 81 -274 153 -70 69 -134 152 -96 122 11 -8 49 -44 85 -80z
m1439 -144 c-2 -2 -29 -16 -59 -31 -56 -28 -57 -25 -6 13 16 12 38 22 49 22
11 0 18 -2 16 -4z m-129 -26 c-118 -95 -323 -130 -570 -99 -95 11 -130 29 -59
29 50 0 254 30 404 60 119 23 145 27 205 28 l45 2 -25 -20z"/>
<path d="M1672 3705 c-12 -15 -24 -35 -27 -46 -9 -27 -25 -24 -25 6 0 26 -32
50 -54 42 -18 -7 -49 -327 -43 -447 6 -111 6 -111 16 -85 17 40 22 -68 16
-300 -3 -126 -8 -280 -12 -341 -3 -72 -1 -119 6 -130 8 -15 11 -15 11 -4 1 8
6 -1 13 -20 12 -36 49 -62 74 -53 8 3 17 18 20 34 5 27 17 34 50 30 25 -3 36
41 29 116 -4 40 -2 131 4 201 6 70 13 154 16 187 l5 60 298 0 298 0 -4 -175
c-3 -96 -9 -179 -14 -185 -13 -13 -11 -184 3 -230 11 -35 12 -37 16 -15 7 50
22 44 22 -8 0 -44 4 -54 26 -69 31 -20 51 -11 74 33 8 16 18 31 21 34 3 3 9
12 12 20 4 11 6 10 7 -5 1 -19 1 -19 15 -2 11 15 12 48 8 161 -4 103 -1 188
13 316 14 132 19 252 19 488 l0 314 -28 24 c-38 32 -61 30 -88 -7 l-22 -31
-14 26 c-9 17 -22 26 -37 26 -23 0 -23 -1 -30 -167 -4 -93 -9 -198 -13 -235
l-6 -67 -66 -7 c-36 -4 -69 -11 -72 -16 -4 -6 -26 -14 -50 -19 -62 -12 -276
-11 -284 1 -3 6 -28 10 -54 10 l-48 0 -5 238 c-6 258 -16 315 -54 320 -14 2
-29 -6 -42 -23z m715 -902 c-3 -10 -5 -4 -5 12 0 17 2 24 5 18 2 -7 2 -21 0
-30z m0 -55 c-3 -7 -5 -2 -5 12 0 14 2 19 5 13 2 -7 2 -19 0 -25z"/>
<path d="M2168 3183 c7 -3 16 -2 19 1 4 3 -2 6 -13 5 -11 0 -14 -3 -6 -6z"/>
<path d="M686 1008 c-5 -22 -76 -780 -76 -805 0 -7 8 -13 19 -13 16 0 19 14
30 142 21 255 57 355 141 400 46 24 126 24 166 -1 67 -41 76 -111 49 -381 -8
-80 -15 -148 -15 -152 0 -5 8 -8 18 -8 17 0 20 18 35 177 10 98 17 200 17 226
0 190 -200 265 -333 125 l-48 -51 7 54 c3 30 11 111 18 182 11 119 11 127 -6
127 -10 0 -20 -9 -22 -22z"/>
<path d="M2986 988 c-6 -39 -76 -776 -76 -792 0 -3 9 -6 20 -6 11 0 20 4 20 8
0 12 68 748 74 795 3 31 1 37 -14 37 -14 0 -20 -10 -24 -42z"/>
<path d="M2585 865 l-7 -85 -49 0 c-42 0 -49 -3 -49 -20 0 -17 7 -20 48 -20
l48 0 -17 -182 c-29 -302 -26 -333 39 -364 55 -26 162 -5 162 32 0 11 -5 14
-17 9 -10 -4 -39 -10 -65 -12 -56 -6 -92 12 -102 51 -3 14 3 116 14 227 11
111 20 210 20 220 0 17 9 19 94 19 91 0 106 5 106 36 0 2 -43 4 -96 4 l-96 0
7 85 c7 81 6 85 -13 85 -18 0 -20 -9 -27 -85z"/>
<path d="M2055 776 c-77 -29 -128 -113 -110 -183 11 -46 65 -86 156 -117 157
-54 189 -83 169 -155 -17 -66 -77 -101 -172 -101 -93 0 -150 38 -163 108 -4
24 -11 32 -23 30 -25 -5 -17 -64 14 -105 33 -44 75 -64 143 -70 133 -12 242
62 245 167 2 75 -48 121 -169 155 -147 42 -192 94 -150 176 25 47 70 69 143
69 78 0 119 -20 138 -66 10 -24 20 -34 32 -32 35 7 5 78 -46 110 -44 27 -151
34 -207 14z"/>
<path d="M3336 775 c-54 -19 -110 -77 -140 -145 -48 -106 -53 -269 -12 -348
50 -96 183 -128 289 -70 45 25 69 54 92 111 15 35 14 37 -4 37 -13 0 -26 -15
-41 -45 -33 -69 -70 -90 -157 -90 -62 0 -75 3 -99 25 -41 38 -64 96 -64 167
l0 63 193 2 192 3 3 85 c2 74 -1 92 -21 130 -41 78 -136 109 -231 75z m158
-46 c42 -33 56 -71 56 -149 l0 -70 -175 0 c-113 0 -175 4 -175 10 0 26 42 125
66 157 40 53 80 73 145 73 42 0 63 -5 83 -21z"/>
<path d="M1296 753 c-3 -16 -13 -113 -22 -218 -13 -154 -14 -198 -4 -235 39
-142 226 -163 336 -37 l36 42 -4 -57 c-4 -50 -2 -58 13 -58 20 0 20 1 49 310
11 118 22 230 24 248 4 26 1 32 -14 32 -23 0 -26 -14 -40 -185 -14 -169 -37
-248 -90 -308 -23 -26 -56 -51 -76 -57 -53 -18 -129 -8 -159 20 -45 43 -49 74
-31 283 9 106 19 204 21 220 4 21 1 27 -14 27 -13 0 -21 -9 -25 -27z"/>
</g>
</svg>
