<svg width="1363" height="167" viewBox="0 0 1363 167" fill="none" xmlns="http://www.w3.org/2000/svg">
<rect width="1363" height="167" rx="15" fill="#F0F0F0"/>
<path d="M0 15C0 6.71573 6.71573 0 15 0H37V167H15C6.71573 167 0 160.284 0 152V15Z" fill="#424241"/>
<path d="M100.906 50.9219L93.3945 48.2383V45.0859L103.602 49.375V51.6367L100.906 50.9219ZM93.3945 53.1719L100.918 50.4297L103.602 49.7852V52.0352L93.3945 56.3242V53.1719ZM123.277 47.8867V50.6289H114.371V47.8867H123.277ZM115.414 40.9375V58H111.898V40.9375H115.414ZM125.785 40.9375V58H122.281V40.9375H125.785ZM136.133 54.9648V45.3203H139.508V58H136.332L136.133 54.9648ZM136.508 52.3633L137.504 52.3398C137.504 53.1836 137.406 53.9688 137.211 54.6953C137.016 55.4141 136.723 56.0391 136.332 56.5703C135.941 57.0938 135.449 57.5039 134.855 57.8008C134.262 58.0898 133.562 58.2344 132.758 58.2344C132.141 58.2344 131.57 58.1484 131.047 57.9766C130.531 57.7969 130.086 57.5195 129.711 57.1445C129.344 56.7617 129.055 56.2734 128.844 55.6797C128.641 55.0781 128.539 54.3555 128.539 53.5117V45.3203H131.914V53.5352C131.914 53.9102 131.957 54.2266 132.043 54.4844C132.137 54.7422 132.266 54.9531 132.43 55.1172C132.594 55.2812 132.785 55.3984 133.004 55.4688C133.23 55.5391 133.48 55.5742 133.754 55.5742C134.449 55.5742 134.996 55.4336 135.395 55.1523C135.801 54.8711 136.086 54.4883 136.25 54.0039C136.422 53.5117 136.508 52.9648 136.508 52.3633ZM148.941 54.4961C148.941 54.2539 148.871 54.0352 148.73 53.8398C148.59 53.6445 148.328 53.4648 147.945 53.3008C147.57 53.1289 147.027 52.9727 146.316 52.832C145.676 52.6914 145.078 52.5156 144.523 52.3047C143.977 52.0859 143.5 51.8242 143.094 51.5195C142.695 51.2148 142.383 50.8555 142.156 50.4414C141.93 50.0195 141.816 49.5391 141.816 49C141.816 48.4688 141.93 47.9688 142.156 47.5C142.391 47.0312 142.723 46.6172 143.152 46.2578C143.59 45.8906 144.121 45.6055 144.746 45.4023C145.379 45.1914 146.09 45.0859 146.879 45.0859C147.98 45.0859 148.926 45.2617 149.715 45.6133C150.512 45.9648 151.121 46.4492 151.543 47.0664C151.973 47.6758 152.188 48.3711 152.188 49.1523H148.812C148.812 48.8242 148.742 48.5312 148.602 48.2734C148.469 48.0078 148.258 47.8008 147.969 47.6523C147.688 47.4961 147.32 47.418 146.867 47.418C146.492 47.418 146.168 47.4844 145.895 47.6172C145.621 47.7422 145.41 47.9141 145.262 48.1328C145.121 48.3438 145.051 48.5781 145.051 48.8359C145.051 49.0312 145.09 49.207 145.168 49.3633C145.254 49.5117 145.391 49.6484 145.578 49.7734C145.766 49.8984 146.008 50.0156 146.305 50.125C146.609 50.2266 146.984 50.3203 147.43 50.4062C148.344 50.5938 149.16 50.8398 149.879 51.1445C150.598 51.4414 151.168 51.8477 151.59 52.3633C152.012 52.8711 152.223 53.5391 152.223 54.3672C152.223 54.9297 152.098 55.4453 151.848 55.9141C151.598 56.3828 151.238 56.793 150.77 57.1445C150.301 57.4883 149.738 57.7578 149.082 57.9531C148.434 58.1406 147.703 58.2344 146.891 58.2344C145.711 58.2344 144.711 58.0234 143.891 57.6016C143.078 57.1797 142.461 56.6445 142.039 55.9961C141.625 55.3398 141.418 54.668 141.418 53.9805H144.617C144.633 54.4414 144.75 54.8125 144.969 55.0938C145.195 55.375 145.48 55.5781 145.824 55.7031C146.176 55.8281 146.555 55.8906 146.961 55.8906C147.398 55.8906 147.762 55.832 148.051 55.7148C148.34 55.5898 148.559 55.4258 148.707 55.2227C148.863 55.0117 148.941 54.7695 148.941 54.4961ZM160.625 45.3203V47.7109H153.242V45.3203H160.625ZM155.07 42.1914H158.445V54.1797C158.445 54.5469 158.492 54.8281 158.586 55.0234C158.688 55.2188 158.836 55.3555 159.031 55.4336C159.227 55.5039 159.473 55.5391 159.77 55.5391C159.98 55.5391 160.168 55.5312 160.332 55.5156C160.504 55.4922 160.648 55.4688 160.766 55.4453L160.777 57.9297C160.488 58.0234 160.176 58.0977 159.84 58.1523C159.504 58.207 159.133 58.2344 158.727 58.2344C157.984 58.2344 157.336 58.1133 156.781 57.8711C156.234 57.6211 155.812 57.2227 155.516 56.6758C155.219 56.1289 155.07 55.4102 155.07 54.5195V42.1914ZM166.109 40V58H162.723V40H166.109ZM174.734 58.2344C173.75 58.2344 172.867 58.0781 172.086 57.7656C171.305 57.4453 170.641 57.0039 170.094 56.4414C169.555 55.8789 169.141 55.2266 168.852 54.4844C168.562 53.7344 168.418 52.9375 168.418 52.0938V51.625C168.418 50.6641 168.555 49.7852 168.828 48.9883C169.102 48.1914 169.492 47.5 170 46.9141C170.516 46.3281 171.141 45.8789 171.875 45.5664C172.609 45.2461 173.438 45.0859 174.359 45.0859C175.258 45.0859 176.055 45.2344 176.75 45.5312C177.445 45.8281 178.027 46.25 178.496 46.7969C178.973 47.3438 179.332 48 179.574 48.7656C179.816 49.5234 179.938 50.3672 179.938 51.2969V52.7031H169.859V50.4531H176.621V50.1953C176.621 49.7266 176.535 49.3086 176.363 48.9414C176.199 48.5664 175.949 48.2695 175.613 48.0508C175.277 47.832 174.848 47.7227 174.324 47.7227C173.879 47.7227 173.496 47.8203 173.176 48.0156C172.855 48.2109 172.594 48.4844 172.391 48.8359C172.195 49.1875 172.047 49.6016 171.945 50.0781C171.852 50.5469 171.805 51.0625 171.805 51.625V52.0938C171.805 52.6016 171.875 53.0703 172.016 53.5C172.164 53.9297 172.371 54.3008 172.637 54.6133C172.91 54.9258 173.238 55.168 173.621 55.3398C174.012 55.5117 174.453 55.5977 174.945 55.5977C175.555 55.5977 176.121 55.4805 176.645 55.2461C177.176 55.0039 177.633 54.6406 178.016 54.1562L179.656 55.9375C179.391 56.3203 179.027 56.6875 178.566 57.0391C178.113 57.3906 177.566 57.6797 176.926 57.9062C176.285 58.125 175.555 58.2344 174.734 58.2344Z" fill="#888888"/>
<path d="M115.994 98.708V104.641H99.5806V98.708H115.994ZM102.151 86.0078V118H94.439V86.0078H102.151ZM121.18 86.0078V118H113.489V86.0078H121.18ZM124.805 106.354V105.893C124.805 104.15 125.054 102.546 125.552 101.081C126.05 99.6016 126.783 98.3198 127.75 97.2358C128.716 96.1519 129.91 95.3096 131.331 94.709C132.752 94.0938 134.393 93.7861 136.253 93.7861C138.128 93.7861 139.776 94.0938 141.197 94.709C142.632 95.3096 143.833 96.1519 144.8 97.2358C145.767 98.3198 146.5 99.6016 146.998 101.081C147.496 102.546 147.745 104.15 147.745 105.893V106.354C147.745 108.083 147.496 109.687 146.998 111.167C146.5 112.631 145.767 113.913 144.8 115.012C143.833 116.096 142.64 116.938 141.219 117.539C139.798 118.139 138.157 118.439 136.297 118.439C134.437 118.439 132.789 118.139 131.353 117.539C129.917 116.938 128.716 116.096 127.75 115.012C126.783 113.913 126.05 112.631 125.552 111.167C125.054 109.687 124.805 108.083 124.805 106.354ZM132.21 105.893V106.354C132.21 107.248 132.276 108.083 132.408 108.859C132.54 109.636 132.759 110.317 133.067 110.903C133.375 111.474 133.792 111.921 134.319 112.243C134.847 112.565 135.506 112.727 136.297 112.727C137.073 112.727 137.718 112.565 138.23 112.243C138.758 111.921 139.175 111.474 139.483 110.903C139.791 110.317 140.01 109.636 140.142 108.859C140.274 108.083 140.34 107.248 140.34 106.354V105.893C140.34 105.029 140.274 104.216 140.142 103.454C140.01 102.678 139.791 101.997 139.483 101.411C139.175 100.81 138.758 100.341 138.23 100.004C137.703 99.6675 137.044 99.499 136.253 99.499C135.477 99.499 134.825 99.6675 134.297 100.004C133.785 100.341 133.375 100.81 133.067 101.411C132.759 101.997 132.54 102.678 132.408 103.454C132.276 104.216 132.21 105.029 132.21 105.893ZM158.27 110.925L162.664 94.2256H167.3L165.652 102.597L161.302 118H157.588L158.27 110.925ZM156.534 94.2256L159.258 110.793L159.566 118H155.062L149.437 94.2256H156.534ZM171.211 110.441L173.958 94.2256H181.055L175.474 118H170.97L171.211 110.441ZM167.828 94.2256L172.266 110.881L172.947 118H169.19L164.927 102.641L163.345 94.2256H167.828ZM209.466 86.0078V118H201.753V86.0078H209.466ZM219.09 86.0078V91.9624H192.349V86.0078H219.09ZM216.475 106.354V105.893C216.475 104.15 216.724 102.546 217.222 101.081C217.72 99.6016 218.453 98.3198 219.419 97.2358C220.386 96.1519 221.58 95.3096 223.001 94.709C224.422 94.0938 226.062 93.7861 227.923 93.7861C229.798 93.7861 231.446 94.0938 232.867 94.709C234.302 95.3096 235.503 96.1519 236.47 97.2358C237.437 98.3198 238.169 99.6016 238.667 101.081C239.166 102.546 239.415 104.15 239.415 105.893V106.354C239.415 108.083 239.166 109.687 238.667 111.167C238.169 112.631 237.437 113.913 236.47 115.012C235.503 116.096 234.31 116.938 232.889 117.539C231.468 118.139 229.827 118.439 227.967 118.439C226.106 118.439 224.458 118.139 223.023 117.539C221.587 116.938 220.386 116.096 219.419 115.012C218.453 113.913 217.72 112.631 217.222 111.167C216.724 109.687 216.475 108.083 216.475 106.354ZM223.88 105.893V106.354C223.88 107.248 223.946 108.083 224.078 108.859C224.209 109.636 224.429 110.317 224.737 110.903C225.044 111.474 225.462 111.921 225.989 112.243C226.517 112.565 227.176 112.727 227.967 112.727C228.743 112.727 229.388 112.565 229.9 112.243C230.428 111.921 230.845 111.474 231.153 110.903C231.46 110.317 231.68 109.636 231.812 108.859C231.944 108.083 232.01 107.248 232.01 106.354V105.893C232.01 105.029 231.944 104.216 231.812 103.454C231.68 102.678 231.46 101.997 231.153 101.411C230.845 100.81 230.428 100.341 229.9 100.004C229.373 99.6675 228.714 99.499 227.923 99.499C227.146 99.499 226.495 99.6675 225.967 100.004C225.455 100.341 225.044 100.81 224.737 101.411C224.429 101.997 224.209 102.678 224.078 103.454C223.946 104.216 223.88 105.029 223.88 105.893ZM254.268 86.0078H266.858C269.319 86.0078 271.458 86.374 273.274 87.1064C275.091 87.8389 276.49 88.9229 277.471 90.3584C278.467 91.7939 278.965 93.5664 278.965 95.6758C278.965 97.5068 278.68 99.0376 278.108 100.268C277.537 101.499 276.739 102.517 275.713 103.322C274.703 104.113 273.523 104.765 272.176 105.278L269.649 106.706H259.08L259.036 100.751H266.858C267.84 100.751 268.653 100.576 269.297 100.224C269.942 99.8726 270.425 99.3745 270.748 98.73C271.084 98.0708 271.253 97.2871 271.253 96.3789C271.253 95.4561 271.084 94.665 270.748 94.0059C270.411 93.3467 269.913 92.8413 269.253 92.4897C268.609 92.1382 267.811 91.9624 266.858 91.9624H261.98V118H254.268V86.0078ZM271.78 118L264.705 103.85L272.879 103.806L280.042 117.67V118H271.78ZM297.159 112.221V94.2256H304.585V118H297.642L297.159 112.221ZM297.862 107.387L299.795 107.343C299.795 108.94 299.605 110.419 299.224 111.782C298.843 113.129 298.279 114.301 297.532 115.297C296.8 116.293 295.892 117.07 294.808 117.626C293.738 118.168 292.5 118.439 291.094 118.439C289.922 118.439 288.846 118.278 287.864 117.956C286.897 117.619 286.062 117.099 285.359 116.396C284.656 115.678 284.107 114.763 283.711 113.649C283.331 112.521 283.14 111.174 283.14 109.606V94.2256H290.545V109.65C290.545 110.178 290.611 110.632 290.743 111.013C290.875 111.394 291.065 111.716 291.314 111.979C291.563 112.229 291.871 112.419 292.237 112.551C292.618 112.668 293.05 112.727 293.533 112.727C294.646 112.727 295.518 112.492 296.148 112.023C296.778 111.555 297.217 110.917 297.466 110.112C297.73 109.306 297.862 108.398 297.862 107.387ZM315.945 99.3013V118H308.541V94.2256H315.484L315.945 99.3013ZM315.066 105.3L313.331 105.344C313.331 103.527 313.55 101.909 313.99 100.488C314.429 99.0522 315.052 97.8364 315.857 96.8403C316.663 95.8442 317.623 95.0898 318.736 94.5771C319.864 94.0498 321.116 93.7861 322.493 93.7861C323.592 93.7861 324.595 93.9473 325.503 94.2695C326.426 94.5918 327.217 95.1118 327.876 95.8296C328.55 96.5474 329.063 97.4995 329.415 98.686C329.781 99.8579 329.964 101.308 329.964 103.037V118H322.515V103.015C322.515 102.062 322.383 101.337 322.12 100.839C321.856 100.327 321.475 99.9751 320.977 99.7847C320.479 99.5942 319.871 99.499 319.153 99.499C318.392 99.499 317.747 99.6455 317.22 99.9385C316.692 100.231 316.268 100.642 315.945 101.169C315.638 101.682 315.411 102.29 315.264 102.993C315.132 103.696 315.066 104.465 315.066 105.3ZM345.85 107.871H339.544C339.544 106.582 339.632 105.446 339.808 104.465C339.998 103.469 340.32 102.575 340.774 101.784C341.229 100.993 341.844 100.261 342.62 99.5869C343.309 99.0156 343.902 98.4663 344.4 97.939C344.898 97.4116 345.279 96.877 345.542 96.335C345.806 95.793 345.938 95.2144 345.938 94.5991C345.938 93.8374 345.828 93.2148 345.608 92.7314C345.403 92.248 345.088 91.8892 344.664 91.6548C344.253 91.4058 343.733 91.2812 343.104 91.2812C342.591 91.2812 342.107 91.4058 341.653 91.6548C341.214 91.9038 340.855 92.292 340.577 92.8193C340.298 93.332 340.145 94.0132 340.115 94.8628H332.667C332.71 92.6802 333.194 90.9077 334.117 89.5454C335.054 88.1685 336.299 87.165 337.852 86.5352C339.419 85.8906 341.17 85.5684 343.104 85.5684C345.242 85.5684 347.081 85.8979 348.619 86.5571C350.157 87.2163 351.336 88.1978 352.156 89.5015C352.977 90.7905 353.387 92.3799 353.387 94.2695C353.387 95.5293 353.145 96.6279 352.662 97.5654C352.193 98.4883 351.556 99.3525 350.75 100.158C349.959 100.949 349.073 101.799 348.091 102.707C347.242 103.454 346.663 104.216 346.355 104.992C346.048 105.754 345.879 106.713 345.85 107.871ZM338.643 114.55C338.643 113.496 339.024 112.617 339.786 111.914C340.547 111.196 341.536 110.837 342.752 110.837C343.968 110.837 344.957 111.196 345.718 111.914C346.48 112.617 346.861 113.496 346.861 114.55C346.861 115.605 346.48 116.491 345.718 117.209C344.957 117.912 343.968 118.264 342.752 118.264C341.536 118.264 340.547 117.912 339.786 117.209C339.024 116.491 338.643 115.605 338.643 114.55Z" fill="#424241"/>
<path d="M1363 15C1363 6.71573 1356.28 0 1348 0H1134V167H1348C1356.28 167 1363 160.284 1363 152V15Z" fill="#B8C7E4"/>
<path d="M1260.77 81.3079C1263.96 81.3079 1267.09 82.2553 1269.74 84.0303C1272.4 85.8053 1274.47 88.3282 1275.69 91.2799C1276.92 94.2316 1277.24 97.4796 1276.61 100.613C1275.99 103.747 1274.45 106.625 1272.19 108.884C1269.93 111.143 1267.05 112.682 1263.92 113.305C1260.79 113.928 1257.54 113.608 1254.59 112.386C1251.64 111.163 1249.11 109.093 1247.34 106.436C1245.56 103.78 1244.62 100.657 1244.62 97.4617C1244.62 93.1774 1246.32 89.0686 1249.35 86.0392C1252.38 83.0098 1256.48 81.3079 1260.77 81.3079ZM1260.77 75.9233C1256.51 75.9233 1252.35 77.1865 1248.8 79.5532C1245.26 81.9198 1242.5 85.2837 1240.87 89.2193C1239.24 93.1549 1238.81 97.4856 1239.64 101.664C1240.48 105.842 1242.53 109.679 1245.54 112.692C1248.55 115.704 1252.39 117.755 1256.57 118.586C1260.75 119.417 1265.08 118.991 1269.01 117.361C1272.95 115.73 1276.31 112.97 1278.68 109.428C1281.04 105.886 1282.31 101.722 1282.31 97.4617C1282.31 91.7493 1280.04 86.271 1276 82.2317C1271.96 78.1925 1266.48 75.9233 1260.77 75.9233Z" fill="#1C2F52"/>
<path d="M1274.23 49H1220.38C1218.96 49 1217.59 49.5673 1216.58 50.5771C1215.57 51.5869 1215 52.9565 1215 54.3846V108.231C1215 109.659 1215.57 111.028 1216.58 112.038C1217.59 113.048 1218.96 113.615 1220.38 113.615H1231.15V108.231H1220.38V70.5384H1279.62V54.3846C1279.62 52.9565 1279.05 51.5869 1278.04 50.5771C1277.03 49.5673 1275.66 49 1274.23 49ZM1220.38 65.1538V54.3846H1274.23V65.1538H1220.38Z" fill="#1C2F52"/>
<path d="M1255.38 89.3849V105.539L1268.85 97.4618L1255.38 89.3849Z" fill="#1C2F52"/>
</svg>
