<svg width="1363" height="301" viewBox="0 0 1363 301" fill="none" xmlns="http://www.w3.org/2000/svg">
<rect width="1363" height="301" rx="15" fill="#F0F0F0"/>
<path d="M0 15C0 6.71573 6.71573 0 15 0H37V301H15C6.71573 301 0 294.284 0 286V15Z" fill="#B8C7E4"/>
<path d="M121.326 120.421V127.672H101.265V120.421H121.326ZM104.407 104.898V144H94.981V104.898H104.407ZM127.664 104.898V144H118.265V104.898H127.664ZM150.196 136.937V114.942H159.273V144H150.787L150.196 136.937ZM151.055 131.029L153.418 130.975C153.418 132.927 153.186 134.735 152.72 136.4C152.255 138.047 151.565 139.479 150.652 140.697C149.757 141.914 148.647 142.863 147.322 143.543C146.015 144.206 144.502 144.537 142.784 144.537C141.351 144.537 140.035 144.34 138.836 143.946C137.654 143.535 136.634 142.899 135.774 142.04C134.915 141.162 134.244 140.043 133.76 138.683C133.295 137.304 133.062 135.657 133.062 133.741V114.942H142.112V133.795C142.112 134.439 142.193 134.994 142.354 135.46C142.515 135.925 142.748 136.319 143.052 136.642C143.357 136.946 143.733 137.179 144.18 137.34C144.646 137.483 145.174 137.555 145.765 137.555C147.125 137.555 148.191 137.268 148.96 136.695C149.73 136.122 150.267 135.344 150.572 134.359C150.894 133.374 151.055 132.264 151.055 131.029ZM179.495 135.836C179.495 135.335 179.325 134.905 178.985 134.547C178.663 134.171 178.09 133.831 177.266 133.526C176.443 133.204 175.288 132.882 173.802 132.56C172.387 132.255 171.054 131.852 169.8 131.351C168.565 130.85 167.482 130.241 166.551 129.525C165.62 128.809 164.886 127.958 164.349 126.974C163.829 125.989 163.57 124.861 163.57 123.59C163.57 122.354 163.829 121.191 164.349 120.099C164.886 118.989 165.665 118.013 166.685 117.171C167.723 116.312 168.986 115.641 170.472 115.157C171.958 114.656 173.65 114.405 175.547 114.405C178.161 114.405 180.417 114.808 182.315 115.614C184.213 116.402 185.672 117.512 186.692 118.944C187.731 120.358 188.25 121.996 188.25 123.858H179.2C179.2 123.124 179.074 122.498 178.824 121.979C178.591 121.459 178.206 121.065 177.669 120.797C177.132 120.51 176.416 120.367 175.521 120.367C174.894 120.367 174.321 120.484 173.802 120.716C173.3 120.949 172.898 121.271 172.593 121.683C172.289 122.095 172.137 122.578 172.137 123.133C172.137 123.527 172.226 123.885 172.405 124.208C172.602 124.512 172.898 124.798 173.292 125.067C173.685 125.318 174.187 125.55 174.795 125.765C175.404 125.962 176.138 126.141 176.998 126.302C178.949 126.66 180.775 127.171 182.476 127.833C184.177 128.495 185.556 129.435 186.612 130.653C187.686 131.87 188.223 133.508 188.223 135.567C188.223 136.856 187.928 138.047 187.337 139.139C186.746 140.213 185.896 141.162 184.786 141.986C183.676 142.792 182.342 143.418 180.784 143.866C179.227 144.313 177.472 144.537 175.521 144.537C172.745 144.537 170.4 144.045 168.484 143.06C166.569 142.057 165.118 140.804 164.134 139.3C163.167 137.778 162.684 136.239 162.684 134.681H171.116C171.152 135.576 171.367 136.31 171.761 136.883C172.173 137.456 172.719 137.877 173.399 138.146C174.079 138.414 174.867 138.548 175.762 138.548C176.586 138.548 177.266 138.432 177.803 138.199C178.358 137.966 178.779 137.653 179.065 137.259C179.352 136.847 179.495 136.373 179.495 135.836ZM207.774 114.942V121.227H190.264V114.942H207.774ZM193.943 107.718H202.994V134.52C202.994 135.29 203.083 135.89 203.262 136.319C203.441 136.731 203.746 137.027 204.175 137.206C204.623 137.367 205.214 137.447 205.948 137.447C206.467 137.447 206.897 137.438 207.237 137.42C207.577 137.385 207.899 137.34 208.204 137.286V143.758C207.434 144.009 206.628 144.197 205.787 144.322C204.945 144.465 204.05 144.537 203.101 144.537C201.167 144.537 199.511 144.233 198.133 143.624C196.772 143.015 195.734 142.057 195.018 140.75C194.301 139.444 193.943 137.743 193.943 135.648V107.718ZM220.933 102.75V144H211.856V102.75H220.933ZM240.591 144.537C238.228 144.537 236.115 144.17 234.253 143.436C232.391 142.684 230.816 141.655 229.527 140.348C228.256 139.041 227.28 137.537 226.6 135.836C225.937 134.135 225.606 132.336 225.606 130.438V129.417C225.606 127.287 225.901 125.318 226.492 123.509C227.083 121.683 227.96 120.09 229.124 118.729C230.288 117.368 231.747 116.312 233.501 115.56C235.256 114.79 237.297 114.405 239.625 114.405C241.683 114.405 243.528 114.736 245.157 115.399C246.786 116.061 248.165 117.01 249.292 118.246C250.438 119.481 251.307 120.976 251.897 122.73C252.506 124.485 252.811 126.454 252.811 128.639V132.318H229.07V126.651H243.975V125.953C243.993 124.986 243.823 124.163 243.465 123.482C243.125 122.802 242.623 122.283 241.961 121.925C241.299 121.567 240.493 121.388 239.544 121.388C238.559 121.388 237.745 121.603 237.1 122.032C236.473 122.462 235.981 123.053 235.623 123.805C235.283 124.539 235.041 125.389 234.898 126.356C234.755 127.323 234.683 128.343 234.683 129.417V130.438C234.683 131.512 234.826 132.488 235.113 133.365C235.417 134.243 235.847 134.994 236.402 135.621C236.975 136.23 237.655 136.704 238.443 137.044C239.249 137.385 240.162 137.555 241.182 137.555C242.417 137.555 243.635 137.322 244.834 136.856C246.034 136.391 247.063 135.621 247.923 134.547L252.032 139.435C251.441 140.276 250.599 141.091 249.507 141.878C248.433 142.666 247.144 143.311 245.64 143.812C244.136 144.295 242.453 144.537 240.591 144.537Z" fill="black"/>
<path d="M107.176 73.4888C107.176 73.0444 107.107 72.6457 106.971 72.2925C106.845 71.9279 106.606 71.5975 106.253 71.3013C105.9 70.9937 105.404 70.6917 104.766 70.3955C104.128 70.0993 103.302 69.7917 102.288 69.4727C101.16 69.1081 100.089 68.6979 99.0752 68.2422C98.0726 67.7865 97.1839 67.2567 96.4092 66.6528C95.6458 66.0376 95.042 65.3255 94.5977 64.5166C94.1647 63.7077 93.9482 62.7677 93.9482 61.6968C93.9482 60.66 94.1761 59.7201 94.6318 58.877C95.0876 58.0225 95.7256 57.2933 96.5459 56.6895C97.3662 56.0742 98.3346 55.6014 99.4512 55.271C100.579 54.9406 101.815 54.7754 103.16 54.7754C104.994 54.7754 106.595 55.1058 107.962 55.7666C109.329 56.4274 110.389 57.3332 111.141 58.4839C111.904 59.6346 112.286 60.9505 112.286 62.4316H107.193C107.193 61.7025 107.039 61.0645 106.731 60.5176C106.435 59.9593 105.979 59.5207 105.364 59.2017C104.76 58.8826 103.997 58.7231 103.074 58.7231C102.186 58.7231 101.445 58.8599 100.853 59.1333C100.26 59.3953 99.8158 59.7542 99.5195 60.21C99.2233 60.6543 99.0752 61.1556 99.0752 61.7139C99.0752 62.1354 99.1777 62.5171 99.3828 62.8589C99.5993 63.2007 99.9183 63.5197 100.34 63.8159C100.761 64.1121 101.28 64.3913 101.895 64.6533C102.51 64.9154 103.222 65.1717 104.031 65.4224C105.387 65.8325 106.578 66.2939 107.603 66.8066C108.64 67.3193 109.506 67.8947 110.201 68.5327C110.896 69.1707 111.42 69.8942 111.773 70.7031C112.126 71.512 112.303 72.4292 112.303 73.4546C112.303 74.5369 112.092 75.5054 111.67 76.3599C111.249 77.2144 110.639 77.9378 109.842 78.5303C109.044 79.1227 108.093 79.5728 106.988 79.8804C105.883 80.188 104.646 80.3418 103.279 80.3418C102.049 80.3418 100.835 80.1823 99.6392 79.8633C98.4429 79.5329 97.3548 79.0373 96.375 78.3765C95.4066 77.7157 94.6318 76.8726 94.0508 75.8472C93.4697 74.8218 93.1792 73.6084 93.1792 72.207H98.3232C98.3232 72.9818 98.4429 73.6369 98.6821 74.1724C98.9214 74.7078 99.2575 75.1408 99.6904 75.4712C100.135 75.8016 100.659 76.0409 101.263 76.189C101.878 76.3371 102.55 76.4111 103.279 76.4111C104.168 76.4111 104.897 76.2858 105.467 76.0352C106.048 75.7845 106.475 75.437 106.749 74.9927C107.033 74.5483 107.176 74.047 107.176 73.4888ZM125.462 75.8301V67.5928C125.462 67.0003 125.365 66.4933 125.171 66.0718C124.978 65.6388 124.676 65.3027 124.266 65.0635C123.867 64.8242 123.348 64.7046 122.71 64.7046C122.164 64.7046 121.691 64.8014 121.292 64.9951C120.893 65.1774 120.586 65.4451 120.369 65.7983C120.153 66.1401 120.044 66.5446 120.044 67.0117H115.123C115.123 66.2256 115.305 65.4793 115.669 64.7729C116.034 64.0666 116.564 63.4456 117.259 62.9102C117.954 62.3633 118.78 61.936 119.737 61.6284C120.705 61.3208 121.788 61.167 122.984 61.167C124.419 61.167 125.695 61.4062 126.812 61.8848C127.929 62.3633 128.806 63.0811 129.444 64.0381C130.093 64.9951 130.418 66.1914 130.418 67.627V75.5396C130.418 76.5535 130.481 77.3853 130.606 78.0347C130.731 78.6727 130.914 79.231 131.153 79.7095V80H126.18C125.94 79.4987 125.758 78.8721 125.633 78.1201C125.519 77.3568 125.462 76.5934 125.462 75.8301ZM126.111 68.7378L126.146 71.5234H123.394C122.745 71.5234 122.181 71.5975 121.702 71.7456C121.224 71.8937 120.831 72.1045 120.523 72.3779C120.215 72.64 119.987 72.9476 119.839 73.3008C119.703 73.654 119.634 74.0413 119.634 74.4629C119.634 74.8844 119.731 75.2661 119.925 75.6079C120.118 75.9383 120.398 76.2004 120.762 76.394C121.127 76.5763 121.554 76.6675 122.044 76.6675C122.785 76.6675 123.428 76.5194 123.975 76.2231C124.522 75.9269 124.944 75.5623 125.24 75.1294C125.547 74.6965 125.707 74.2863 125.718 73.8989L127.017 75.9839C126.835 76.451 126.584 76.9352 126.265 77.4365C125.958 77.9378 125.564 78.4106 125.086 78.855C124.607 79.2879 124.032 79.6468 123.36 79.9316C122.688 80.2051 121.89 80.3418 120.967 80.3418C119.794 80.3418 118.729 80.1082 117.771 79.6411C116.826 79.1626 116.074 78.5075 115.516 77.6758C114.969 76.8327 114.695 75.8757 114.695 74.8047C114.695 73.8363 114.878 72.9761 115.242 72.2241C115.607 71.4722 116.142 70.8398 116.849 70.3271C117.566 69.8031 118.461 69.41 119.532 69.1479C120.603 68.8745 121.845 68.7378 123.257 68.7378H126.111ZM144.192 75.8301V67.5928C144.192 67.0003 144.096 66.4933 143.902 66.0718C143.708 65.6388 143.406 65.3027 142.996 65.0635C142.597 64.8242 142.079 64.7046 141.441 64.7046C140.894 64.7046 140.421 64.8014 140.022 64.9951C139.624 65.1774 139.316 65.4451 139.1 65.7983C138.883 66.1401 138.775 66.5446 138.775 67.0117H133.853C133.853 66.2256 134.035 65.4793 134.4 64.7729C134.764 64.0666 135.294 63.4456 135.989 62.9102C136.684 62.3633 137.51 61.936 138.467 61.6284C139.436 61.3208 140.518 61.167 141.714 61.167C143.15 61.167 144.426 61.4062 145.542 61.8848C146.659 62.3633 147.536 63.0811 148.174 64.0381C148.824 64.9951 149.148 66.1914 149.148 67.627V75.5396C149.148 76.5535 149.211 77.3853 149.336 78.0347C149.462 78.6727 149.644 79.231 149.883 79.7095V80H144.91C144.671 79.4987 144.489 78.8721 144.363 78.1201C144.249 77.3568 144.192 76.5934 144.192 75.8301ZM144.842 68.7378L144.876 71.5234H142.125C141.475 71.5234 140.911 71.5975 140.433 71.7456C139.954 71.8937 139.561 72.1045 139.253 72.3779C138.946 72.64 138.718 72.9476 138.57 73.3008C138.433 73.654 138.365 74.0413 138.365 74.4629C138.365 74.8844 138.462 75.2661 138.655 75.6079C138.849 75.9383 139.128 76.2004 139.493 76.394C139.857 76.5763 140.285 76.6675 140.774 76.6675C141.515 76.6675 142.159 76.5194 142.706 76.2231C143.252 75.9269 143.674 75.5623 143.97 75.1294C144.278 74.6965 144.437 74.2863 144.449 73.8989L145.748 75.9839C145.565 76.451 145.315 76.9352 144.996 77.4365C144.688 77.9378 144.295 78.4106 143.816 78.855C143.338 79.2879 142.763 79.6468 142.09 79.9316C141.418 80.2051 140.621 80.3418 139.698 80.3418C138.524 80.3418 137.459 80.1082 136.502 79.6411C135.556 79.1626 134.804 78.5075 134.246 77.6758C133.699 76.8327 133.426 75.8757 133.426 74.8047C133.426 73.8363 133.608 72.9761 133.973 72.2241C134.337 71.4722 134.873 70.8398 135.579 70.3271C136.297 69.8031 137.191 69.41 138.262 69.1479C139.333 68.8745 140.575 68.7378 141.988 68.7378H144.842ZM163.863 75.9668V53.75H168.819V80H164.358L163.863 75.9668ZM152.173 70.9766V70.6177C152.173 69.2049 152.333 67.9232 152.652 66.7725C152.971 65.6104 153.438 64.6134 154.053 63.7817C154.668 62.95 155.426 62.3063 156.326 61.8506C157.226 61.3949 158.252 61.167 159.402 61.167C160.485 61.167 161.43 61.3949 162.239 61.8506C163.06 62.3063 163.755 62.9557 164.324 63.7988C164.905 64.6305 165.372 65.616 165.726 66.7554C166.079 67.8833 166.335 69.1195 166.495 70.4639V71.25C166.335 72.5374 166.079 73.7337 165.726 74.8389C165.372 75.944 164.905 76.9124 164.324 77.7441C163.755 78.5645 163.06 79.2025 162.239 79.6582C161.419 80.1139 160.462 80.3418 159.368 80.3418C158.217 80.3418 157.192 80.1082 156.292 79.6411C155.403 79.174 154.651 78.5189 154.036 77.6758C153.432 76.8327 152.971 75.8415 152.652 74.7021C152.333 73.5628 152.173 72.321 152.173 70.9766ZM157.095 70.6177V70.9766C157.095 71.7399 157.152 72.452 157.266 73.1128C157.391 73.7736 157.591 74.3604 157.864 74.873C158.149 75.3743 158.514 75.7674 158.958 76.0522C159.414 76.3257 159.966 76.4624 160.616 76.4624C161.459 76.4624 162.154 76.2744 162.701 75.8984C163.248 75.5111 163.663 74.9813 163.948 74.3091C164.244 73.6369 164.415 72.8621 164.461 71.9849V69.7461C164.427 69.0283 164.324 68.3846 164.153 67.8149C163.994 67.2339 163.755 66.7383 163.436 66.3281C163.128 65.918 162.741 65.599 162.273 65.3711C161.818 65.1432 161.277 65.0293 160.65 65.0293C160.012 65.0293 159.465 65.1774 159.009 65.4736C158.554 65.7585 158.183 66.1515 157.898 66.6528C157.625 67.1541 157.42 67.7466 157.283 68.4302C157.158 69.1024 157.095 69.8315 157.095 70.6177ZM191.429 69.0796H185.037L185.003 65.5591H190.369C191.315 65.5591 192.09 65.4395 192.693 65.2002C193.297 64.9495 193.747 64.5907 194.043 64.1235C194.351 63.645 194.505 63.064 194.505 62.3804C194.505 61.6056 194.357 60.979 194.061 60.5005C193.776 60.022 193.326 59.6745 192.71 59.458C192.107 59.2415 191.326 59.1333 190.369 59.1333H186.814V80H181.688V55.1172H190.369C191.816 55.1172 193.109 55.2539 194.249 55.5273C195.399 55.8008 196.373 56.2166 197.171 56.7749C197.968 57.3332 198.578 58.0396 199 58.894C199.421 59.7371 199.632 60.7397 199.632 61.9019C199.632 62.9272 199.398 63.8729 198.931 64.7388C198.475 65.6047 197.752 66.311 196.761 66.8579C195.781 67.4048 194.499 67.7067 192.916 67.7637L191.429 69.0796ZM191.207 80H183.636L185.635 76.001H191.207C192.107 76.001 192.841 75.8586 193.411 75.5737C193.981 75.2775 194.402 74.8787 194.676 74.3774C194.949 73.8761 195.086 73.3008 195.086 72.6514C195.086 71.9222 194.961 71.2899 194.71 70.7544C194.471 70.2189 194.083 69.8088 193.548 69.5239C193.012 69.2277 192.306 69.0796 191.429 69.0796H186.49L186.524 65.5591H192.676L193.855 66.9434C195.371 66.9206 196.59 67.1883 197.513 67.7466C198.447 68.2935 199.125 69.0055 199.546 69.8828C199.979 70.7601 200.196 71.7 200.196 72.7026C200.196 74.2977 199.848 75.6421 199.153 76.7358C198.458 77.8182 197.439 78.6328 196.094 79.1797C194.761 79.7266 193.132 80 191.207 80ZM213.714 75.8301V67.5928C213.714 67.0003 213.617 66.4933 213.423 66.0718C213.23 65.6388 212.928 65.3027 212.518 65.0635C212.119 64.8242 211.6 64.7046 210.962 64.7046C210.416 64.7046 209.943 64.8014 209.544 64.9951C209.145 65.1774 208.838 65.4451 208.621 65.7983C208.405 66.1401 208.296 66.5446 208.296 67.0117H203.375C203.375 66.2256 203.557 65.4793 203.921 64.7729C204.286 64.0666 204.816 63.4456 205.511 62.9102C206.206 62.3633 207.032 61.936 207.989 61.6284C208.957 61.3208 210.04 61.167 211.236 61.167C212.671 61.167 213.947 61.4062 215.064 61.8848C216.181 62.3633 217.058 63.0811 217.696 64.0381C218.345 64.9951 218.67 66.1914 218.67 67.627V75.5396C218.67 76.5535 218.733 77.3853 218.858 78.0347C218.983 78.6727 219.166 79.231 219.405 79.7095V80H214.432C214.192 79.4987 214.01 78.8721 213.885 78.1201C213.771 77.3568 213.714 76.5934 213.714 75.8301ZM214.363 68.7378L214.397 71.5234H211.646C210.997 71.5234 210.433 71.5975 209.954 71.7456C209.476 71.8937 209.083 72.1045 208.775 72.3779C208.467 72.64 208.239 72.9476 208.091 73.3008C207.955 73.654 207.886 74.0413 207.886 74.4629C207.886 74.8844 207.983 75.2661 208.177 75.6079C208.37 75.9383 208.65 76.2004 209.014 76.394C209.379 76.5763 209.806 76.6675 210.296 76.6675C211.036 76.6675 211.68 76.5194 212.227 76.2231C212.774 75.9269 213.195 75.5623 213.492 75.1294C213.799 74.6965 213.959 74.2863 213.97 73.8989L215.269 75.9839C215.087 76.451 214.836 76.9352 214.517 77.4365C214.209 77.9378 213.816 78.4106 213.338 78.855C212.859 79.2879 212.284 79.6468 211.612 79.9316C210.94 80.2051 210.142 80.3418 209.219 80.3418C208.046 80.3418 206.98 80.1082 206.023 79.6411C205.078 79.1626 204.326 78.5075 203.768 77.6758C203.221 76.8327 202.947 75.8757 202.947 74.8047C202.947 73.8363 203.13 72.9761 203.494 72.2241C203.859 71.4722 204.394 70.8398 205.101 70.3271C205.818 69.8031 206.713 69.41 207.784 69.1479C208.855 68.8745 210.097 68.7378 211.509 68.7378H214.363ZM233.384 75.9668V53.75H238.34V80H233.88L233.384 75.9668ZM221.695 70.9766V70.6177C221.695 69.2049 221.854 67.9232 222.173 66.7725C222.492 65.6104 222.959 64.6134 223.575 63.7817C224.19 62.95 224.948 62.3063 225.848 61.8506C226.748 61.3949 227.773 61.167 228.924 61.167C230.006 61.167 230.952 61.3949 231.761 61.8506C232.581 62.3063 233.276 62.9557 233.846 63.7988C234.427 64.6305 234.894 65.616 235.247 66.7554C235.6 67.8833 235.857 69.1195 236.016 70.4639V71.25C235.857 72.5374 235.6 73.7337 235.247 74.8389C234.894 75.944 234.427 76.9124 233.846 77.7441C233.276 78.5645 232.581 79.2025 231.761 79.6582C230.94 80.1139 229.983 80.3418 228.89 80.3418C227.739 80.3418 226.714 80.1082 225.813 79.6411C224.925 79.174 224.173 78.5189 223.558 77.6758C222.954 76.8327 222.492 75.8415 222.173 74.7021C221.854 73.5628 221.695 72.321 221.695 70.9766ZM226.617 70.6177V70.9766C226.617 71.7399 226.674 72.452 226.788 73.1128C226.913 73.7736 227.112 74.3604 227.386 74.873C227.671 75.3743 228.035 75.7674 228.479 76.0522C228.935 76.3257 229.488 76.4624 230.137 76.4624C230.98 76.4624 231.675 76.2744 232.222 75.8984C232.769 75.5111 233.185 74.9813 233.47 74.3091C233.766 73.6369 233.937 72.8621 233.982 71.9849V69.7461C233.948 69.0283 233.846 68.3846 233.675 67.8149C233.515 67.2339 233.276 66.7383 232.957 66.3281C232.649 65.918 232.262 65.599 231.795 65.3711C231.339 65.1432 230.798 65.0293 230.171 65.0293C229.533 65.0293 228.986 65.1774 228.531 65.4736C228.075 65.7585 227.705 66.1515 227.42 66.6528C227.146 67.1541 226.941 67.7466 226.805 68.4302C226.679 69.1024 226.617 69.8315 226.617 70.6177ZM247.107 65.542V80H242.186V61.5088H246.817L247.107 65.542ZM252.679 61.3892L252.593 65.9521C252.354 65.918 252.063 65.8895 251.722 65.8667C251.391 65.8325 251.089 65.8154 250.816 65.8154C250.121 65.8154 249.517 65.9066 249.004 66.0889C248.503 66.2598 248.082 66.5161 247.74 66.8579C247.409 67.1997 247.159 67.6156 246.988 68.1055C246.828 68.5954 246.737 69.1536 246.714 69.7803L245.723 69.4727C245.723 68.2764 245.843 67.1769 246.082 66.1743C246.321 65.1603 246.669 64.2773 247.125 63.5254C247.592 62.7734 248.161 62.1924 248.833 61.7822C249.506 61.3721 250.275 61.167 251.141 61.167C251.414 61.167 251.693 61.1898 251.978 61.2354C252.263 61.2695 252.496 61.3208 252.679 61.3892ZM263.172 80.3418C261.736 80.3418 260.449 80.1139 259.31 79.6582C258.17 79.1911 257.202 78.5474 256.404 77.7271C255.618 76.9067 255.014 75.9554 254.593 74.873C254.171 73.7793 253.96 72.6172 253.96 71.3867V70.7031C253.96 69.3018 254.16 68.02 254.559 66.8579C254.957 65.6958 255.527 64.6875 256.268 63.833C257.02 62.9785 257.931 62.3234 259.002 61.8677C260.073 61.4006 261.281 61.167 262.625 61.167C263.935 61.167 265.097 61.3835 266.111 61.8164C267.125 62.2493 267.974 62.8646 268.658 63.6621C269.353 64.4596 269.877 65.4167 270.23 66.5332C270.583 67.6383 270.76 68.8688 270.76 70.2246V72.2754H256.062V68.9941H265.923V68.6182C265.923 67.9346 265.798 67.325 265.547 66.7896C265.308 66.2427 264.944 65.8097 264.454 65.4907C263.964 65.1717 263.337 65.0122 262.574 65.0122C261.924 65.0122 261.366 65.1546 260.899 65.4395C260.432 65.7243 260.05 66.123 259.754 66.6357C259.469 67.1484 259.253 67.7523 259.104 68.4473C258.968 69.1309 258.899 69.8828 258.899 70.7031V71.3867C258.899 72.1273 259.002 72.8109 259.207 73.4375C259.424 74.0641 259.725 74.6053 260.113 75.061C260.512 75.5168 260.99 75.87 261.548 76.1206C262.118 76.3713 262.762 76.4966 263.479 76.4966C264.368 76.4966 265.194 76.3257 265.958 75.9839C266.732 75.6307 267.399 75.1009 267.957 74.3945L270.35 76.9922C269.962 77.5505 269.432 78.0859 268.76 78.5986C268.099 79.1113 267.302 79.5329 266.368 79.8633C265.433 80.1823 264.368 80.3418 263.172 80.3418ZM284.483 75.9668V53.75H289.439V80H284.979L284.483 75.9668ZM272.793 70.9766V70.6177C272.793 69.2049 272.953 67.9232 273.272 66.7725C273.591 65.6104 274.058 64.6134 274.673 63.7817C275.289 62.95 276.046 62.3063 276.946 61.8506C277.846 61.3949 278.872 61.167 280.022 61.167C281.105 61.167 282.05 61.3949 282.859 61.8506C283.68 62.3063 284.375 62.9557 284.944 63.7988C285.525 64.6305 285.993 65.616 286.346 66.7554C286.699 67.8833 286.955 69.1195 287.115 70.4639V71.25C286.955 72.5374 286.699 73.7337 286.346 74.8389C285.993 75.944 285.525 76.9124 284.944 77.7441C284.375 78.5645 283.68 79.2025 282.859 79.6582C282.039 80.1139 281.082 80.3418 279.988 80.3418C278.838 80.3418 277.812 80.1082 276.912 79.6411C276.023 79.174 275.271 78.5189 274.656 77.6758C274.052 76.8327 273.591 75.8415 273.272 74.7021C272.953 73.5628 272.793 72.321 272.793 70.9766ZM277.715 70.6177V70.9766C277.715 71.7399 277.772 72.452 277.886 73.1128C278.012 73.7736 278.211 74.3604 278.484 74.873C278.769 75.3743 279.134 75.7674 279.578 76.0522C280.034 76.3257 280.586 76.4624 281.236 76.4624C282.079 76.4624 282.774 76.2744 283.321 75.8984C283.868 75.5111 284.284 74.9813 284.568 74.3091C284.865 73.6369 285.035 72.8621 285.081 71.9849V69.7461C285.047 69.0283 284.944 68.3846 284.773 67.8149C284.614 67.2339 284.375 66.7383 284.056 66.3281C283.748 65.918 283.361 65.599 282.894 65.3711C282.438 65.1432 281.897 65.0293 281.27 65.0293C280.632 65.0293 280.085 65.1774 279.629 65.4736C279.174 65.7585 278.803 66.1515 278.519 66.6528C278.245 67.1541 278.04 67.7466 277.903 68.4302C277.778 69.1024 277.715 69.8315 277.715 70.6177ZM304.205 75.9668V53.75H309.161V80H304.7L304.205 75.9668ZM292.515 70.9766V70.6177C292.515 69.2049 292.675 67.9232 292.994 66.7725C293.313 65.6104 293.78 64.6134 294.395 63.7817C295.01 62.95 295.768 62.3063 296.668 61.8506C297.568 61.3949 298.593 61.167 299.744 61.167C300.826 61.167 301.772 61.3949 302.581 61.8506C303.401 62.3063 304.096 62.9557 304.666 63.7988C305.247 64.6305 305.714 65.616 306.067 66.7554C306.421 67.8833 306.677 69.1195 306.836 70.4639V71.25C306.677 72.5374 306.421 73.7337 306.067 74.8389C305.714 75.944 305.247 76.9124 304.666 77.7441C304.096 78.5645 303.401 79.2025 302.581 79.6582C301.761 80.1139 300.804 80.3418 299.71 80.3418C298.559 80.3418 297.534 80.1082 296.634 79.6411C295.745 79.174 294.993 78.5189 294.378 77.6758C293.774 76.8327 293.313 75.8415 292.994 74.7021C292.675 73.5628 292.515 72.321 292.515 70.9766ZM297.437 70.6177V70.9766C297.437 71.7399 297.494 72.452 297.608 73.1128C297.733 73.7736 297.933 74.3604 298.206 74.873C298.491 75.3743 298.855 75.7674 299.3 76.0522C299.756 76.3257 300.308 76.4624 300.958 76.4624C301.801 76.4624 302.496 76.2744 303.042 75.8984C303.589 75.5111 304.005 74.9813 304.29 74.3091C304.586 73.6369 304.757 72.8621 304.803 71.9849V69.7461C304.769 69.0283 304.666 68.3846 304.495 67.8149C304.336 67.2339 304.096 66.7383 303.777 66.3281C303.47 65.918 303.082 65.599 302.615 65.3711C302.16 65.1432 301.618 65.0293 300.992 65.0293C300.354 65.0293 299.807 65.1774 299.351 65.4736C298.895 65.7585 298.525 66.1515 298.24 66.6528C297.967 67.1541 297.762 67.7466 297.625 68.4302C297.5 69.1024 297.437 69.8315 297.437 70.6177ZM318.201 61.5088V80H313.262V61.5088H318.201ZM312.955 56.6895C312.955 55.9717 313.205 55.3792 313.707 54.9121C314.208 54.445 314.88 54.2114 315.723 54.2114C316.555 54.2114 317.221 54.445 317.723 54.9121C318.235 55.3792 318.492 55.9717 318.492 56.6895C318.492 57.4072 318.235 57.9997 317.723 58.4668C317.221 58.9339 316.555 59.1675 315.723 59.1675C314.88 59.1675 314.208 58.9339 313.707 58.4668C313.205 57.9997 312.955 57.4072 312.955 56.6895ZM327.088 65.4565V80H322.166V61.5088H326.78L327.088 65.4565ZM326.37 70.105H325.037C325.037 68.7378 325.214 67.5073 325.567 66.4136C325.92 65.3084 326.416 64.3685 327.054 63.5938C327.692 62.8076 328.449 62.2095 329.327 61.7993C330.215 61.3778 331.207 61.167 332.3 61.167C333.166 61.167 333.958 61.2923 334.676 61.543C335.394 61.7936 336.009 62.1924 336.521 62.7393C337.046 63.2861 337.444 64.0096 337.718 64.9097C338.003 65.8097 338.145 66.9092 338.145 68.208V80H333.189V68.1909C333.189 67.3706 333.075 66.7326 332.847 66.2769C332.619 65.8211 332.283 65.5021 331.839 65.3198C331.406 65.1261 330.87 65.0293 330.232 65.0293C329.572 65.0293 328.996 65.1603 328.506 65.4224C328.028 65.6844 327.629 66.049 327.31 66.5161C327.002 66.9718 326.769 67.5073 326.609 68.1226C326.45 68.7378 326.37 69.3986 326.37 70.105ZM350.398 80.3418C348.963 80.3418 347.675 80.1139 346.536 79.6582C345.397 79.1911 344.428 78.5474 343.631 77.7271C342.845 76.9067 342.241 75.9554 341.819 74.873C341.398 73.7793 341.187 72.6172 341.187 71.3867V70.7031C341.187 69.3018 341.386 68.02 341.785 66.8579C342.184 65.6958 342.754 64.6875 343.494 63.833C344.246 62.9785 345.158 62.3234 346.229 61.8677C347.299 61.4006 348.507 61.167 349.852 61.167C351.162 61.167 352.324 61.3835 353.338 61.8164C354.352 62.2493 355.201 62.8646 355.884 63.6621C356.579 64.4596 357.103 65.4167 357.457 66.5332C357.81 67.6383 357.986 68.8688 357.986 70.2246V72.2754H343.289V68.9941H353.15V68.6182C353.15 67.9346 353.025 67.325 352.774 66.7896C352.535 66.2427 352.17 65.8097 351.68 65.4907C351.19 65.1717 350.564 65.0122 349.8 65.0122C349.151 65.0122 348.593 65.1546 348.125 65.4395C347.658 65.7243 347.277 66.123 346.98 66.6357C346.696 67.1484 346.479 67.7523 346.331 68.4473C346.194 69.1309 346.126 69.8828 346.126 70.7031V71.3867C346.126 72.1273 346.229 72.8109 346.434 73.4375C346.65 74.0641 346.952 74.6053 347.339 75.061C347.738 75.5168 348.217 75.87 348.775 76.1206C349.345 76.3713 349.988 76.4966 350.706 76.4966C351.595 76.4966 352.421 76.3257 353.184 75.9839C353.959 75.6307 354.625 75.1009 355.184 74.3945L357.576 76.9922C357.189 77.5505 356.659 78.0859 355.987 78.5986C355.326 79.1113 354.528 79.5329 353.594 79.8633C352.66 80.1823 351.595 80.3418 350.398 80.3418Z" fill="#888888"/>
<rect x="92" y="181" width="1179" height="80" rx="13.3333" fill="#CCCCCC"/>
<rect x="107" y="196.333" width="208" height="49.3333" rx="4.66667" fill="#888888" stroke="#888888" stroke-width="4"/>
<path d="M183.833 213.167V228.333H180.177V213.167H183.833ZM189.729 219.479V222.292H182.792V219.479H189.729ZM190.323 213.167V215.99H182.792V213.167H190.323ZM195.385 212.333V228.333H191.865V212.333H195.385ZM204.135 225.594V217.063H207.656V228.333H204.365L204.135 225.594ZM204.469 223.302L205.385 223.281C205.385 224.038 205.295 224.74 205.115 225.385C204.934 226.024 204.667 226.58 204.313 227.052C203.965 227.524 203.535 227.892 203.021 228.156C202.514 228.413 201.927 228.542 201.26 228.542C200.705 228.542 200.194 228.465 199.729 228.313C199.271 228.153 198.875 227.906 198.542 227.573C198.208 227.233 197.948 226.799 197.76 226.271C197.58 225.736 197.49 225.097 197.49 224.354V217.063H201V224.375C201 224.625 201.031 224.84 201.094 225.021C201.156 225.201 201.247 225.354 201.365 225.479C201.483 225.597 201.628 225.688 201.802 225.75C201.983 225.806 202.188 225.833 202.417 225.833C202.944 225.833 203.358 225.722 203.656 225.5C203.955 225.278 204.163 224.976 204.281 224.594C204.406 224.212 204.469 223.781 204.469 223.302ZM215.531 217.063V219.5H208.74V217.063H215.531ZM210.167 214.26H213.677V224.656C213.677 224.955 213.712 225.188 213.781 225.354C213.851 225.514 213.969 225.628 214.135 225.698C214.309 225.76 214.538 225.792 214.823 225.792C215.024 225.792 215.191 225.788 215.323 225.781C215.455 225.767 215.58 225.75 215.698 225.729V228.24C215.399 228.337 215.087 228.41 214.76 228.458C214.434 228.514 214.087 228.542 213.719 228.542C212.969 228.542 212.326 228.424 211.792 228.188C211.264 227.951 210.861 227.58 210.583 227.073C210.306 226.566 210.167 225.906 210.167 225.094V214.26ZM222.865 217.063V219.5H216.073V217.063H222.865ZM217.5 214.26H221.01V224.656C221.01 224.955 221.045 225.188 221.115 225.354C221.184 225.514 221.302 225.628 221.469 225.698C221.642 225.76 221.872 225.792 222.156 225.792C222.358 225.792 222.524 225.788 222.656 225.781C222.788 225.767 222.913 225.75 223.031 225.729V228.24C222.733 228.337 222.42 228.41 222.094 228.458C221.767 228.514 221.42 228.542 221.052 228.542C220.302 228.542 219.66 228.424 219.125 228.188C218.597 227.951 218.194 227.58 217.917 227.073C217.639 226.566 217.5 225.906 217.5 225.094V214.26ZM229.719 228.542C228.802 228.542 227.983 228.399 227.26 228.115C226.538 227.823 225.927 227.424 225.427 226.917C224.934 226.41 224.556 225.826 224.292 225.167C224.035 224.507 223.906 223.809 223.906 223.073V222.677C223.906 221.851 224.021 221.087 224.25 220.385C224.479 219.677 224.819 219.059 225.271 218.531C225.722 218.003 226.288 217.594 226.969 217.302C227.649 217.003 228.441 216.854 229.344 216.854C230.142 216.854 230.858 216.983 231.49 217.24C232.122 217.497 232.656 217.865 233.094 218.344C233.538 218.823 233.875 219.403 234.104 220.083C234.34 220.764 234.458 221.528 234.458 222.375V223.802H225.25V221.604H231.031V221.333C231.038 220.958 230.972 220.639 230.833 220.375C230.701 220.111 230.507 219.91 230.25 219.771C229.993 219.632 229.681 219.563 229.312 219.563C228.931 219.563 228.615 219.646 228.365 219.813C228.122 219.979 227.931 220.208 227.792 220.5C227.66 220.785 227.566 221.115 227.51 221.49C227.455 221.865 227.427 222.26 227.427 222.677V223.073C227.427 223.49 227.483 223.868 227.594 224.208C227.712 224.549 227.878 224.84 228.094 225.083C228.316 225.319 228.58 225.503 228.885 225.635C229.198 225.767 229.552 225.833 229.948 225.833C230.427 225.833 230.899 225.743 231.365 225.563C231.83 225.382 232.229 225.083 232.562 224.667L234.156 226.563C233.927 226.889 233.601 227.205 233.177 227.51C232.76 227.816 232.26 228.066 231.677 228.26C231.094 228.448 230.441 228.542 229.719 228.542ZM239.427 219.854V228.333H235.917V217.063H239.198L239.427 219.854ZM242.76 216.979L242.698 220.24C242.559 220.226 242.372 220.208 242.135 220.188C241.899 220.167 241.701 220.156 241.542 220.156C241.132 220.156 240.778 220.205 240.479 220.302C240.187 220.392 239.944 220.531 239.75 220.719C239.562 220.899 239.424 221.128 239.333 221.406C239.25 221.684 239.212 222.007 239.219 222.375L238.583 221.958C238.583 221.201 238.656 220.514 238.802 219.896C238.955 219.271 239.17 218.733 239.448 218.281C239.726 217.823 240.062 217.472 240.458 217.229C240.854 216.979 241.299 216.854 241.792 216.854C241.965 216.854 242.135 216.865 242.302 216.885C242.476 216.906 242.628 216.938 242.76 216.979Z" fill="white"/>
<rect x="339" y="196.333" width="208" height="49.3333" rx="4.66667" fill="#888888" stroke="#888888" stroke-width="4"/>
<path d="M443.292 220.229V226.458C443.035 226.743 442.639 227.049 442.104 227.375C441.576 227.694 440.91 227.969 440.104 228.198C439.299 228.427 438.351 228.542 437.26 228.542C436.253 228.542 435.34 228.382 434.521 228.063C433.701 227.736 432.997 227.26 432.406 226.635C431.823 226.003 431.372 225.233 431.052 224.323C430.74 223.406 430.583 222.358 430.583 221.177V220.333C430.583 219.153 430.743 218.104 431.062 217.188C431.382 216.271 431.83 215.5 432.406 214.875C432.99 214.243 433.674 213.764 434.458 213.438C435.25 213.111 436.118 212.948 437.062 212.948C438.458 212.948 439.594 213.17 440.469 213.615C441.344 214.052 442.007 214.66 442.458 215.438C442.91 216.208 443.184 217.101 443.281 218.115H439.771C439.701 217.615 439.569 217.191 439.375 216.844C439.187 216.49 438.917 216.222 438.562 216.042C438.208 215.854 437.75 215.76 437.187 215.76C436.75 215.76 436.351 215.854 435.99 216.042C435.635 216.229 435.333 216.514 435.083 216.896C434.833 217.271 434.639 217.743 434.5 218.313C434.368 218.882 434.302 219.549 434.302 220.313V221.177C434.302 221.934 434.365 222.597 434.49 223.167C434.622 223.736 434.816 224.212 435.073 224.594C435.337 224.969 435.67 225.253 436.073 225.448C436.483 225.635 436.965 225.729 437.521 225.729C437.91 225.729 438.243 225.698 438.521 225.635C438.799 225.566 439.028 225.483 439.208 225.385C439.396 225.281 439.538 225.184 439.635 225.094V222.74H437.094V220.229H443.292ZM444.823 222.813V222.594C444.823 221.767 444.941 221.007 445.177 220.313C445.413 219.611 445.76 219.003 446.219 218.49C446.677 217.976 447.243 217.576 447.917 217.292C448.59 217 449.368 216.854 450.25 216.854C451.139 216.854 451.92 217 452.594 217.292C453.274 217.576 453.844 217.976 454.302 218.49C454.76 219.003 455.108 219.611 455.344 220.313C455.58 221.007 455.698 221.767 455.698 222.594V222.813C455.698 223.632 455.58 224.392 455.344 225.094C455.108 225.788 454.76 226.396 454.302 226.917C453.844 227.431 453.278 227.83 452.604 228.115C451.931 228.399 451.153 228.542 450.271 228.542C449.389 228.542 448.608 228.399 447.927 228.115C447.247 227.83 446.677 227.431 446.219 226.917C445.76 226.396 445.413 225.788 445.177 225.094C444.941 224.392 444.823 223.632 444.823 222.813ZM448.333 222.594V222.813C448.333 223.236 448.365 223.632 448.427 224C448.49 224.368 448.594 224.691 448.74 224.969C448.885 225.24 449.083 225.451 449.333 225.604C449.583 225.757 449.896 225.833 450.271 225.833C450.639 225.833 450.944 225.757 451.187 225.604C451.437 225.451 451.635 225.24 451.781 224.969C451.927 224.691 452.031 224.368 452.094 224C452.156 223.632 452.187 223.236 452.187 222.813V222.594C452.187 222.184 452.156 221.799 452.094 221.438C452.031 221.069 451.927 220.747 451.781 220.469C451.635 220.184 451.437 219.962 451.187 219.802C450.937 219.642 450.625 219.563 450.25 219.563C449.882 219.563 449.573 219.642 449.323 219.802C449.08 219.962 448.885 220.184 448.74 220.469C448.594 220.747 448.49 221.069 448.427 221.438C448.365 221.799 448.333 222.184 448.333 222.594Z" fill="white"/>
<rect x="571" y="196.333" width="208" height="49.3333" rx="4.66667" fill="#888888" stroke="#888888" stroke-width="4"/>
<path d="M672.333 220.229V226.458C672.076 226.743 671.681 227.049 671.146 227.375C670.618 227.694 669.951 227.969 669.146 228.198C668.34 228.427 667.392 228.542 666.302 228.542C665.295 228.542 664.382 228.382 663.562 228.063C662.743 227.736 662.038 227.26 661.448 226.635C660.865 226.003 660.413 225.233 660.094 224.323C659.781 223.406 659.625 222.358 659.625 221.177V220.333C659.625 219.153 659.785 218.104 660.104 217.188C660.424 216.271 660.872 215.5 661.448 214.875C662.031 214.243 662.715 213.764 663.5 213.438C664.292 213.111 665.16 212.948 666.104 212.948C667.5 212.948 668.635 213.17 669.51 213.615C670.385 214.052 671.049 214.66 671.5 215.438C671.951 216.208 672.226 217.101 672.323 218.115H668.812C668.743 217.615 668.611 217.191 668.417 216.844C668.229 216.49 667.958 216.222 667.604 216.042C667.25 215.854 666.792 215.76 666.229 215.76C665.792 215.76 665.392 215.854 665.031 216.042C664.677 216.229 664.375 216.514 664.125 216.896C663.875 217.271 663.681 217.743 663.542 218.313C663.41 218.882 663.344 219.549 663.344 220.313V221.177C663.344 221.934 663.406 222.597 663.531 223.167C663.663 223.736 663.858 224.212 664.115 224.594C664.378 224.969 664.712 225.253 665.115 225.448C665.524 225.635 666.007 225.729 666.562 225.729C666.951 225.729 667.285 225.698 667.562 225.635C667.84 225.566 668.069 225.483 668.25 225.385C668.437 225.281 668.58 225.184 668.677 225.094V222.74H666.135V220.229H672.333ZM678.01 217.063V228.333H674.49V217.063H678.01ZM674.281 214.156C674.281 213.656 674.462 213.247 674.823 212.927C675.184 212.608 675.653 212.448 676.229 212.448C676.806 212.448 677.274 212.608 677.635 212.927C677.997 213.247 678.177 213.656 678.177 214.156C678.177 214.656 677.997 215.066 677.635 215.385C677.274 215.705 676.806 215.865 676.229 215.865C675.653 215.865 675.184 215.705 674.823 215.385C674.462 215.066 674.281 214.656 674.281 214.156ZM683.625 219.469V228.333H680.115V217.063H683.406L683.625 219.469ZM683.208 222.313L682.385 222.333C682.385 221.472 682.49 220.705 682.698 220.031C682.906 219.351 683.201 218.774 683.583 218.302C683.965 217.83 684.42 217.472 684.948 217.229C685.483 216.979 686.076 216.854 686.729 216.854C687.25 216.854 687.726 216.931 688.156 217.083C688.594 217.236 688.969 217.483 689.281 217.823C689.601 218.163 689.844 218.615 690.01 219.177C690.184 219.733 690.271 220.42 690.271 221.24V228.333H686.74V221.229C686.74 220.778 686.677 220.434 686.552 220.198C686.427 219.955 686.247 219.788 686.01 219.698C685.774 219.608 685.486 219.563 685.146 219.563C684.785 219.563 684.479 219.632 684.229 219.771C683.979 219.91 683.778 220.104 683.625 220.354C683.479 220.597 683.372 220.885 683.302 221.219C683.24 221.552 683.208 221.917 683.208 222.313Z" fill="white"/>
<rect x="803" y="196.333" width="208" height="49.3333" rx="4.66667" fill="#888888" stroke="#888888" stroke-width="4"/>
<path d="M889.615 220.229V226.458C889.358 226.743 888.962 227.049 888.427 227.375C887.899 227.694 887.233 227.969 886.427 228.198C885.622 228.427 884.674 228.542 883.583 228.542C882.576 228.542 881.663 228.382 880.844 228.063C880.024 227.736 879.319 227.26 878.729 226.635C878.146 226.003 877.694 225.233 877.375 224.323C877.062 223.406 876.906 222.358 876.906 221.177V220.333C876.906 219.153 877.066 218.104 877.385 217.188C877.705 216.271 878.153 215.5 878.729 214.875C879.312 214.243 879.997 213.764 880.781 213.438C881.573 213.111 882.441 212.948 883.385 212.948C884.781 212.948 885.917 213.17 886.792 213.615C887.667 214.052 888.33 214.66 888.781 215.438C889.233 216.208 889.507 217.101 889.604 218.115H886.094C886.024 217.615 885.892 217.191 885.698 216.844C885.51 216.49 885.24 216.222 884.885 216.042C884.531 215.854 884.073 215.76 883.51 215.76C883.073 215.76 882.674 215.854 882.312 216.042C881.958 216.229 881.656 216.514 881.406 216.896C881.156 217.271 880.962 217.743 880.823 218.313C880.691 218.882 880.625 219.549 880.625 220.313V221.177C880.625 221.934 880.687 222.597 880.812 223.167C880.944 223.736 881.139 224.212 881.396 224.594C881.66 224.969 881.993 225.253 882.396 225.448C882.806 225.635 883.288 225.729 883.844 225.729C884.233 225.729 884.566 225.698 884.844 225.635C885.122 225.566 885.351 225.483 885.531 225.385C885.719 225.281 885.861 225.184 885.958 225.094V222.74H883.417V220.229H889.615ZM904.583 220.448V221.063C904.583 222.222 904.42 223.264 904.094 224.188C903.774 225.104 903.319 225.889 902.729 226.542C902.139 227.188 901.441 227.684 900.635 228.031C899.83 228.372 898.941 228.542 897.969 228.542C896.99 228.542 896.094 228.372 895.281 228.031C894.476 227.684 893.774 227.188 893.177 226.542C892.587 225.889 892.128 225.104 891.802 224.188C891.483 223.264 891.323 222.222 891.323 221.063V220.448C891.323 219.288 891.483 218.247 891.802 217.323C892.128 216.399 892.583 215.615 893.167 214.969C893.757 214.316 894.455 213.819 895.26 213.479C896.073 213.132 896.969 212.958 897.948 212.958C898.92 212.958 899.809 213.132 900.615 213.479C901.427 213.819 902.128 214.316 902.719 214.969C903.309 215.615 903.767 216.399 904.094 217.323C904.42 218.247 904.583 219.288 904.583 220.448ZM900.875 221.063V220.427C900.875 219.677 900.809 219.017 900.677 218.448C900.552 217.872 900.365 217.389 900.115 217C899.865 216.611 899.556 216.319 899.187 216.125C898.826 215.924 898.413 215.823 897.948 215.823C897.462 215.823 897.038 215.924 896.677 216.125C896.316 216.319 896.014 216.611 895.771 217C895.528 217.389 895.344 217.872 895.219 218.448C895.101 219.017 895.042 219.677 895.042 220.427V221.063C895.042 221.806 895.101 222.465 895.219 223.042C895.344 223.611 895.528 224.094 895.771 224.49C896.021 224.885 896.326 225.184 896.687 225.385C897.056 225.587 897.483 225.688 897.969 225.688C898.434 225.688 898.847 225.587 899.208 225.385C899.569 225.184 899.872 224.885 900.115 224.49C900.365 224.094 900.552 223.611 900.677 223.042C900.809 222.465 900.875 221.806 900.875 221.063ZM906.479 213.167H912.448C913.615 213.167 914.628 213.34 915.49 213.688C916.351 214.035 917.014 214.549 917.479 215.229C917.951 215.91 918.187 216.75 918.187 217.75C918.187 218.618 918.052 219.344 917.781 219.927C917.51 220.51 917.132 220.993 916.646 221.375C916.167 221.75 915.608 222.059 914.969 222.302L913.771 222.979H908.76L908.74 220.156H912.448C912.913 220.156 913.299 220.073 913.604 219.906C913.91 219.74 914.139 219.503 914.292 219.198C914.451 218.885 914.531 218.514 914.531 218.083C914.531 217.646 914.451 217.271 914.292 216.958C914.132 216.646 913.896 216.406 913.583 216.24C913.278 216.073 912.899 215.99 912.448 215.99H910.135V228.333H906.479V213.167ZM914.781 228.333L911.427 221.625L915.302 221.604L918.698 228.177V228.333H914.781ZM922.208 213.167H925.187L928.573 223.719L931.958 213.167H934.937L929.781 228.333H927.365L922.208 213.167ZM920.396 213.167H923.479L924.052 224.792V228.333H920.396V213.167ZM933.667 213.167H936.76V228.333H933.094V224.792L933.667 213.167Z" fill="white"/>
<rect x="1035" y="196.333" width="208" height="49.3333" rx="4.66667" fill="#888888" stroke="#888888" stroke-width="4"/>
<path d="M1107.26 213.167H1110.24L1113.62 223.719L1117.01 213.167H1119.99L1114.83 228.333H1112.42L1107.26 213.167ZM1105.45 213.167H1108.53L1109.1 224.792V228.333H1105.45V213.167ZM1118.72 213.167H1121.81V228.333H1118.15V224.792L1118.72 213.167ZM1127.45 227.01L1130.36 217.063H1134.14L1129.6 230.01C1129.51 230.295 1129.38 230.601 1129.22 230.927C1129.06 231.26 1128.84 231.576 1128.56 231.875C1128.28 232.174 1127.93 232.417 1127.49 232.604C1127.06 232.792 1126.52 232.885 1125.89 232.885C1125.55 232.885 1125.3 232.868 1125.14 232.833C1124.98 232.806 1124.75 232.753 1124.43 232.677V230.167C1124.52 230.167 1124.59 230.167 1124.66 230.167C1124.73 230.167 1124.8 230.167 1124.89 230.167C1125.26 230.167 1125.56 230.128 1125.78 230.052C1126.01 229.976 1126.18 229.865 1126.3 229.719C1126.43 229.573 1126.52 229.396 1126.59 229.188L1127.45 227.01ZM1126.71 217.063L1128.93 224.948L1129.31 228.667H1126.96L1122.95 217.063H1126.71ZM1143.03 224.302C1143.03 224.066 1143 223.854 1142.93 223.667C1142.86 223.472 1142.73 223.292 1142.54 223.125C1142.35 222.958 1142.08 222.792 1141.73 222.625C1141.38 222.451 1140.92 222.271 1140.35 222.083C1139.69 221.861 1139.05 221.611 1138.43 221.333C1137.81 221.049 1137.26 220.719 1136.77 220.344C1136.28 219.962 1135.9 219.517 1135.61 219.01C1135.33 218.497 1135.19 217.899 1135.19 217.219C1135.19 216.566 1135.33 215.979 1135.63 215.458C1135.92 214.931 1136.32 214.483 1136.84 214.115C1137.37 213.74 1137.99 213.455 1138.7 213.26C1139.41 213.059 1140.18 212.958 1141.02 212.958C1142.13 212.958 1143.11 213.153 1143.96 213.542C1144.81 213.924 1145.48 214.469 1145.96 215.177C1146.44 215.878 1146.69 216.708 1146.69 217.667H1143.05C1143.05 217.285 1142.97 216.948 1142.81 216.656C1142.66 216.365 1142.43 216.135 1142.11 215.969C1141.8 215.802 1141.41 215.719 1140.94 215.719C1140.48 215.719 1140.09 215.788 1139.78 215.927C1139.47 216.066 1139.23 216.253 1139.07 216.49C1138.91 216.719 1138.83 216.972 1138.83 217.25C1138.83 217.479 1138.9 217.688 1139.02 217.875C1139.15 218.056 1139.34 218.226 1139.57 218.385C1139.82 218.545 1140.11 218.698 1140.45 218.844C1140.8 218.99 1141.18 219.132 1141.61 219.271C1142.42 219.528 1143.14 219.816 1143.76 220.135C1144.39 220.448 1144.92 220.806 1145.35 221.208C1145.79 221.604 1146.12 222.056 1146.34 222.563C1146.57 223.069 1146.69 223.642 1146.69 224.281C1146.69 224.962 1146.56 225.566 1146.29 226.094C1146.03 226.622 1145.65 227.069 1145.16 227.438C1144.66 227.799 1144.07 228.073 1143.39 228.26C1142.7 228.448 1141.93 228.542 1141.08 228.542C1140.31 228.542 1139.54 228.444 1138.78 228.25C1138.03 228.049 1137.35 227.743 1136.74 227.333C1136.13 226.917 1135.64 226.385 1135.27 225.74C1134.91 225.087 1134.73 224.313 1134.73 223.417H1138.4C1138.4 223.861 1138.45 224.236 1138.57 224.542C1138.69 224.847 1138.86 225.094 1139.09 225.281C1139.32 225.462 1139.6 225.594 1139.94 225.677C1140.27 225.753 1140.65 225.792 1141.08 225.792C1141.55 225.792 1141.92 225.726 1142.21 225.594C1142.49 225.455 1142.7 225.274 1142.83 225.052C1142.97 224.823 1143.03 224.573 1143.03 224.302ZM1157.03 225.833L1161.26 229.188L1158.99 231.104L1154.83 227.75L1157.03 225.833ZM1161.44 220.448V221.063C1161.44 222.222 1161.27 223.264 1160.95 224.188C1160.63 225.104 1160.17 225.889 1159.57 226.542C1158.98 227.188 1158.28 227.684 1157.48 228.031C1156.67 228.372 1155.78 228.542 1154.81 228.542C1153.83 228.542 1152.94 228.372 1152.12 228.031C1151.32 227.684 1150.62 227.188 1150.02 226.542C1149.43 225.889 1148.97 225.104 1148.65 224.188C1148.33 223.264 1148.17 222.222 1148.17 221.063V220.448C1148.17 219.288 1148.33 218.247 1148.65 217.323C1148.97 216.399 1149.43 215.615 1150.01 214.969C1150.6 214.316 1151.3 213.819 1152.1 213.479C1152.92 213.132 1153.81 212.958 1154.79 212.958C1155.76 212.958 1156.65 213.132 1157.46 213.479C1158.27 213.819 1158.97 214.316 1159.56 214.969C1160.16 215.615 1160.62 216.399 1160.95 217.323C1161.27 218.247 1161.44 219.288 1161.44 220.448ZM1157.72 221.063V220.427C1157.72 219.677 1157.65 219.017 1157.52 218.448C1157.4 217.872 1157.21 217.389 1156.96 217C1156.71 216.611 1156.4 216.319 1156.03 216.125C1155.67 215.924 1155.26 215.823 1154.79 215.823C1154.31 215.823 1153.88 215.924 1153.52 216.125C1153.16 216.319 1152.86 216.611 1152.61 217C1152.37 217.389 1152.19 217.872 1152.06 218.448C1151.94 219.017 1151.89 219.677 1151.89 220.427V221.063C1151.89 221.806 1151.94 222.465 1152.06 223.042C1152.19 223.611 1152.37 224.094 1152.61 224.49C1152.86 224.885 1153.17 225.184 1153.53 225.385C1153.9 225.587 1154.33 225.688 1154.81 225.688C1155.28 225.688 1155.69 225.587 1156.05 225.385C1156.41 225.184 1156.72 224.885 1156.96 224.49C1157.21 224.094 1157.4 223.611 1157.52 223.042C1157.65 222.465 1157.72 221.806 1157.72 221.063ZM1173.32 225.521V228.333H1165.66V225.521H1173.32ZM1166.96 213.167V228.333H1163.3V213.167H1166.96Z" fill="white"/>
</svg>
